<?xml version="1.0" standalone="no"?><!DOCTYPE svg PUBLIC "-//W3C//DTD SVG 1.1//EN" "http://www.w3.org/Graphics/SVG/1.1/DTD/svg11.dtd"><svg t="1528855353783" class="icon" style="" viewBox="0 0 1024 1024" version="1.1" xmlns="http://www.w3.org/2000/svg" p-id="5189" xmlns:xlink="http://www.w3.org/1999/xlink" width="48" height="48"><defs><style type="text/css"></style></defs><path d="M988.76928 340.64896c-26.57536-57.6512-119.08352-57.11616-178.74944-50.13248C740.48 192.19712 625.88928 128 496.30208 128c-212.07808 0-381.44 171.92192-381.44 384 0 4.01664 0.08192 8.01536 0.20224 12.00128 0.30976 10.22976 1.01888 20.35968 2.10176 30.3744a389.2736 389.2736 0 0 0 2.71616 20.032c-66.20928 54.03904-104.65792 119.3216-84.82816 170.62912 20.04224 51.85536 98.49344 59.27168 157.15328 59.83744 15.95136 0.1536 34.39104-0.3712 54.80192-1.792 66.6624 57.89184 153.61536 92.91776 249.2928 92.91776 208.27904 0 377.81248-165.82144 383.8208-372.6464 84.66432-70.59456 130.42688-127.1552 108.6464-182.70464zM731.62752 747.32544C668.76928 810.18368 585.19808 844.8 496.30208 844.8c-62.96576 0-123.07712-17.4976-174.91712-50.08896 54.50752-8.37376 116.49024-22.67136 180.72064-45.68576 0 0 192.17152-68.91776 170.69568-167.90784-8.4992-39.17824-53.33504-72.512-122.88768-82.09152-101.056-13.92384-127.5136-37.58592-127.5136-67.8144 0-16.42496 34.5216-45.56032 78.97344-62.12608 38.20032-14.24128 77.45792-24.37632 77.8496-24.45312a13.42208 13.42208 0 0 0 9.23904-19.64288l-19.90144-38.44608a13.40928 13.40928 0 0 0-14.38976-6.67904c-5.80864 1.16736-129.99936 26.6752-181.53984 87.60576-14.45888 17.08544-25.13152 35.29984-27.82464 60.33152-10.42944 97.12896 90.42432 114.34496 163.93728 127.43424 10.5344 1.87136 70.15936 11.1872 71.58016 44.22144 4.3008 100.06528-406.5792 176.22528-478.67904 142.42048-12.82048-6.01088-21.52192-18.08384-25.15712-27.36128-9.55648-24.39424 8.97792-67.38688 49.32608-110.72512 9.6256 39.77728 25.344 77.1328 46.18496 110.96064 18.048-0.8576 37.68064-2.5472 58.19904-4.99968C188.56448 652.92544 166.06208 584.27392 166.06208 512c0-89.14176 34.22208-172.7744 96.36352-235.49184C324.5952 213.75744 407.6544 179.2 496.30208 179.2c88.896 0 172.4672 34.61632 235.32544 97.47456s97.47456 146.42944 97.47456 235.32544-34.61632 172.4672-97.47456 235.32544z m141.32736-310.3488a381.5552 381.5552 0 0 0-46.59456-121.30304c55.08864-0.88576 93.85472 8.17664 102.4 28.10368 13.45536 31.37536-13.03552 57.46432-55.80544 93.19936z" p-id="5190"></path></svg>