<?xml version="1.0" standalone="no"?><!DOCTYPE svg PUBLIC "-//W3C//DTD SVG 1.1//EN" "http://www.w3.org/Graphics/SVG/1.1/DTD/svg11.dtd"><svg t="1525744494563" class="icon" style="" viewBox="0 0 1024 1024" version="1.1" xmlns="http://www.w3.org/2000/svg" p-id="2436" xmlns:xlink="http://www.w3.org/1999/xlink" width="32" height="32"><defs><style type="text/css"></style></defs><path d="M921.6 109.226667h-819.2C47.786667 109.226667 0 150.186667 0 204.8s47.786667 102.4 102.4 102.4h826.026667c47.786667 0 95.573333-47.786667 95.573333-102.4s-47.786667-95.573333-102.4-95.573333zM559.786667 600.746667c0-27.306667 6.826667-54.613333 13.653333-81.92 0-27.306667 6.826667-40.96 20.48-61.44 13.653333-20.48 34.133333-34.133333 54.613333-47.786667 6.826667 0 0-6.826667 0-6.826667h-546.133333C47.786667 402.773333 0 450.56 0 505.173333s47.786667 102.4 102.4 102.4l457.386667-6.826666zM423.253333 907.946667c6.826667-27.306667 20.48-54.613333 40.96-68.266667 13.653333-20.48 34.133333-27.306667 47.786667-34.133333 0 0 68.266667-27.306667 88.746667-27.306667-6.826667-6.826667-13.653333-20.48-20.48-27.306667 0-6.826667-6.826667-13.653333-6.826667-20.48l-13.653333-13.653333H102.4c-54.613333 0-102.4 47.786667-102.4 102.4s47.786667 102.4 102.4 102.4h320.853333c-6.826667-6.826667-6.826667-13.653333 0-13.653333z" p-id="2437" fill="#ffffff"></path><path d="M1024 928.426667c0-6.826667 0-13.653333-6.826667-20.48 0-6.826667-6.826667-20.48-20.48-27.306667-6.826667-6.826667-20.48-13.653333-27.306666-13.653333-13.653333-6.826667-54.613333-27.306667-68.266667-27.306667-13.653333 0-20.48-6.826667-34.133333-6.826667-6.826667-6.826667-20.48-6.826667-27.306667-13.653333-6.826667-6.826667-6.826667-13.653333-13.653333-13.653333 0-6.826667-6.826667-13.653333-6.826667-20.48 0-6.826667 0-20.48 6.826667-27.306667 0 0 0-6.826667 6.826666-6.826667l6.826667-6.826666c6.826667 0 6.826667-6.826667 6.826667-6.826667 6.826667 0 6.826667-6.826667 6.826666-13.653333s6.826667-6.826667 6.826667-13.653334 6.826667-13.653333 6.826667-20.48l20.48-6.826666c6.826667 0 6.826667-6.826667 6.826666-13.653334s6.826667-13.653333 6.826667-20.48v-13.653333c0-6.826667 0-6.826667-6.826667-13.653333 0 0 0-6.826667-6.826666-6.826667v-47.786667c0-13.653333-6.826667-27.306667-6.826667-40.96l-20.48-40.96-13.653333-13.653333c-6.826667-6.826667-13.653333-13.653333-20.48-13.653333-6.826667-6.826667-20.48-6.826667-27.306667-6.826667-13.653333 0-20.48-6.826667-34.133333-6.826667h-27.306667c-6.826667 0-20.48 6.826667-27.306667 6.826667-27.306667 13.653333-47.786667 27.306667-54.613333 47.786667-13.653333 6.826667-20.48 20.48-20.48 34.133333-6.826667 27.306667-13.653333 54.613333-6.826667 81.92 0 6.826667-6.826667 6.826667-6.826666 13.653333-6.826667 6.826667-6.826667 6.826667-6.826667 13.653334v20.48c0 6.826667 6.826667 13.653333 6.826667 13.653333l6.826666 6.826667s6.826667 0 6.826667 6.826666l6.826667 20.48c0 6.826667 6.826667 6.826667 6.826666 13.653334s6.826667 6.826667 6.826667 13.653333c6.826667 6.826667 13.653333 6.826667 20.48 13.653333 6.826667 0 6.826667 6.826667 6.826667 13.653334v27.306666c0 6.826667-6.826667 6.826667-6.826667 13.653334-6.826667 13.653333-13.653333 13.653333-20.48 20.48-13.653333 6.826667-20.48 13.653333-34.133333 13.653333-13.653333 6.826667-68.266667 20.48-81.92 27.306667-13.653333 6.826667-20.48 6.826667-34.133334 13.653333-6.826667 6.826667-13.653333 20.48-20.48 34.133333-6.826667 13.653333-6.826667 27.306667 0 47.786667 0 6.826667 0 20.48 6.826667 27.306667 6.826667 6.826667 20.48 6.826667 27.306667 6.826666 81.92 20.48 163.84 27.306667 245.76 27.306667 81.92 0 157.013333-6.826667 232.106666-27.306667 6.826667 0 13.653333-6.826667 13.653334-6.826666 0-6.826667 6.826667-13.653333 6.826666-20.48v-27.306667c6.826667-6.826667 6.826667 0 6.826667-13.653333z m-245.76-20.48v61.44c0 6.826667-6.826667 6.826667-6.826667 13.653333l-6.826666 6.826667s-6.826667 0-6.826667 6.826666c0 0-6.826667 0-6.826667-6.826666l-6.826666-6.826667s-6.826667-6.826667-6.826667-13.653333v-6.826667-13.653333-20.48c0-6.826667 0-13.653333 6.826667-20.48v-13.653334s-6.826667-6.826667-6.826667-13.653333v-6.826667-6.826666s0-6.826667 6.826667-6.826667l6.826666-6.826667h20.48l6.826667 6.826667 6.826667 6.826667V887.466667c0 6.826667-6.826667 6.826667-6.826667 13.653333v6.826667z" p-id="2438" fill="#ffffff"></path></svg>