<?xml version="1.0" standalone="no"?><!DOCTYPE svg PUBLIC "-//W3C//DTD SVG 1.1//EN" "http://www.w3.org/Graphics/SVG/1.1/DTD/svg11.dtd"><svg t="1524886470234" class="icon" style="" viewBox="0 0 1024 1024" version="1.1" xmlns="http://www.w3.org/2000/svg" p-id="3654" xmlns:xlink="http://www.w3.org/1999/xlink" width="16" height="16"><defs><style type="text/css"></style></defs><path d="M510.016 997.536c-264.992 0-413.056-50.016-413.056-133.888 0-48.352 85.76-90.752 204.352-114.272l28.032 42.016c-101.088 15.008-166.24 41.76-166.24 72.32 0 47.04 167.328 77.344 346.816 77.344s346.784-30.304 346.784-77.344c0-30.56-65.12-57.248-166.24-72.32l28.064-42.016c118.656 23.52 204.384 65.952 204.384 114.272 0.064 81.952-156.32 133.888-412.896 133.888z" fill="" p-id="3655"></path><path d="M770.752 558.976c-8.96 9.888-220.544 256.096-220.544 256.096-8.864 10.72-18.592 18.24-29.12 18.24-10.432 0-18.4-8.416-26.496-18.24 0 0-238.656-260.928-242.688-266.624s-9.6-12.864-14.016-20.32C206.496 477.76 185.6 420 185.6 356.256 185.76 173.984 333.6 26.336 515.872 26.464 698.112 26.304 845.984 173.92 846.144 356.16v0.064a326.4 326.4 0 0 1-52.864 178.24c-8.96 12.032-17.6 19.712-22.528 24.512zM515.968 87.712a270.336 270.336 0 0 0-270.656 270.112v0.064a227.52 227.52 0 0 0 40.832 129.344c8.096 12.864 33.6 42.912 33.6 42.912l203.744 226.496 185.6-220.288s9.792-11.584 21.504-28.512c29.92-43.2 56-90.592 56-150.016 0-149.184-121.216-270.112-270.624-270.112z m0 395.776a127.328 127.328 0 1 1 0-254.56 127.36 127.36 0 1 1 0 254.56z m0-193.248a66.048 66.048 0 1 0-0.032 132.096 66.08 66.08 0 0 0 0.032-132.096z" fill="" p-id="3656"></path></svg>