<?xml version="1.0" standalone="no"?><!DOCTYPE svg PUBLIC "-//W3C//DTD SVG 1.1//EN" "http://www.w3.org/Graphics/SVG/1.1/DTD/svg11.dtd"><svg t="1526375342529" class="icon" style="" viewBox="0 0 1024 1024" version="1.1" xmlns="http://www.w3.org/2000/svg" p-id="4096" xmlns:xlink="http://www.w3.org/1999/xlink" width="32" height="32"><defs><style type="text/css"></style></defs><path d="M902.647672 125.355896L542.063641 4.990554a94.486328 94.486328 0 0 0-60.601576 0L120.83149 125.355896C90.018707 135.595793 69.818182 164.779501 69.818182 198.059168v264.701353c0 152.621019 71.213833 298.027565 190.369005 388.650659l207.590652 157.740968c12.660237 9.727903 27.787358 14.847852 43.985014 14.847852 15.639116 0 30.766238-5.119949 43.93847-14.847852l208.056101-157.694423C882.959141 760.788087 954.172975 615.334996 954.172975 462.807066V198.012624c-0.46545-33.279667-21.224515-62.463375-51.525303-72.703273z m-170.215025 233.469665h-189.391561v366.634879c0 13.823862-17.687096 25.599744-31.278233 25.599744-13.637682 0-30.300788-11.263887-30.300788-25.599744V358.872106H291.046515c-13.637682 0-24.761934-23.551764-24.761934-37.375626 0-13.823862 11.124252-25.599744 24.761934-25.599744h441.898126c13.637682 0 24.761934 11.263887 24.761935 25.599744-0.46545 13.823862-11.636247 37.375626-25.273929 37.375626z" p-id="4097" data-spm-anchor-id="a313x.7781069.0.i0" class="" fill="#889AA4"></path></svg>